<?xml version="1.0" encoding="utf-8"?>
<!-- Generator: Adobe Illustrator 15.1.0, SVG Export Plug-In . SVG Version: 6.00 Build 0)  -->
<svg version="1.2" baseProfile="tiny" id="Layer_1" xmlns="http://www.w3.org/2000/svg" xmlns:xlink="http://www.w3.org/1999/xlink"
	 x="0px" y="0px" width="315.574px" height="65.574px" viewBox="0 0 315.574 65.574" xml:space="preserve">
<text transform="matrix(1 0 0 1 -0.8198 62.2944)" fill="#FFDF7F" font-family="'GiddyupStd'" font-size="80">B</text>
<text transform="matrix(1 0 0 1 44.1401 62.2944)" fill="#FFDF7F" font-family="'GiddyupStd'" font-size="80">u</text>
<text transform="matrix(1 0 0 1 71.02 62.2944)" fill="#FFDF7F" font-family="'GiddyupStd'" font-size="80">t</text>
<text transform="matrix(1 0 0 1 88.6187 62.2944)" fill="#FFDF7F" font-family="'GiddyupStd'" font-size="80">t</text>
<text transform="matrix(1 0 0 1 105.418 62.2944)" fill="#FFDF7F" font-family="'GiddyupStd'" font-size="80">e</text>
<text transform="matrix(1 0 0 1 129.2573 62.2944)" fill="#FFDF7F" font-family="'GiddyupStd'" font-size="80">r</text>
<text transform="matrix(1 0 0 1 148.2173 62.2944)" fill="#FFDF7F" font-family="'GiddyupStd'" font-size="80">c</text>
<text transform="matrix(1 0 0 1 172.2168 62.2944)" fill="#FFDF7F" font-family="'GiddyupStd'" font-size="80">h</text>
<text transform="matrix(1 0 0 1 201.0957 62.2944)" fill="#FFDF7F" font-family="'GiddyupStd'" font-size="80">a</text>
<text transform="matrix(1 0 0 1 228.7754 62.2944)" fill="#FFDF7F" font-family="'GiddyupStd'" font-size="80">r</text>
<text transform="matrix(1 0 0 1 248.1348 62.2944)" fill="#FFDF7F" font-family="'GiddyupStd'" font-size="80">m</text>
<text transform="matrix(1 0 0 1 291.8125 62.2944)" fill="#FFDF7F" font-family="'GiddyupStd'" font-size="80">s</text>
</svg>
